<svg width="22" height="21" viewBox="0 0 22 21" fill="none" xmlns="http://www.w3.org/2000/svg">
<g filter="url(#filter0_d_30789_31832)">
<path d="M5 4.2002V13.6854C5 15.0464 5 15.7268 5.20412 16.1433C5.58245 16.9151 6.41157 17.3588 7.26367 17.2454C7.7234 17.1842 8.28964 16.8067 9.4221 16.0518L9.42481 16.0499C9.87368 15.7507 10.0981 15.6011 10.333 15.5181C10.7642 15.3656 11.2348 15.3656 11.666 15.5181C11.9013 15.6012 12.1266 15.7515 12.5773 16.0519C13.7098 16.8069 14.2767 17.1841 14.7364 17.2452C15.5885 17.3586 16.4176 16.9151 16.7959 16.1433C17 15.7269 17 15.0462 17 13.6854V4.19691C17 3.07899 17 2.5192 16.7822 2.0918C16.5905 1.71547 16.2837 1.40973 15.9074 1.21799C15.4796 1 14.9203 1 13.8002 1H8.2002C7.08009 1 6.51962 1 6.0918 1.21799C5.71547 1.40973 5.40973 1.71547 5.21799 2.0918C5 2.51962 5 3.08009 5 4.2002Z" fill="black"/>
<path d="M5 4.2002V13.6854C5 15.0464 5 15.7268 5.20412 16.1433C5.58245 16.9151 6.41157 17.3588 7.26367 17.2454C7.7234 17.1842 8.28964 16.8067 9.4221 16.0518L9.42481 16.0499C9.87368 15.7507 10.0981 15.6011 10.333 15.5181C10.7642 15.3656 11.2348 15.3656 11.666 15.5181C11.9013 15.6012 12.1266 15.7515 12.5773 16.0519C13.7098 16.8069 14.2767 17.1841 14.7364 17.2452C15.5885 17.3586 16.4176 16.9151 16.7959 16.1433C17 15.7269 17 15.0462 17 13.6854V4.19691C17 3.07899 17 2.5192 16.7822 2.0918C16.5905 1.71547 16.2837 1.40973 15.9074 1.21799C15.4796 1 14.9203 1 13.8002 1H8.2002C7.08009 1 6.51962 1 6.0918 1.21799C5.71547 1.40973 5.40973 1.71547 5.21799 2.0918C5 2.51962 5 3.08009 5 4.2002Z" stroke="black" stroke-width="2" stroke-linecap="round" stroke-linejoin="round"/>
</g>
<defs>
<filter id="filter0_d_30789_31832" x="0" y="0" width="22" height="26.2629" filterUnits="userSpaceOnUse" color-interpolation-filters="sRGB">
<feFlood flood-opacity="0" result="BackgroundImageFix"/>
<feColorMatrix in="SourceAlpha" type="matrix" values="0 0 0 0 0 0 0 0 0 0 0 0 0 0 0 0 0 0 127 0" result="hardAlpha"/>
<feOffset dy="4"/>
<feGaussianBlur stdDeviation="2"/>
<feComposite in2="hardAlpha" operator="out"/>
<feColorMatrix type="matrix" values="0 0 0 0 0 0 0 0 0 0 0 0 0 0 0 0 0 0 0.25 0"/>
<feBlend mode="normal" in2="BackgroundImageFix" result="effect1_dropShadow_30789_31832"/>
<feBlend mode="normal" in="SourceGraphic" in2="effect1_dropShadow_30789_31832" result="shape"/>
</filter>
</defs>
</svg>
